<?xml version="1.0" encoding="utf-8"?>
<!-- Generator: Adobe Illustrator 23.1.1, SVG Export Plug-In . SVG Version: 6.00 Build 0)  -->
<svg version="1.1" id="Ï§‰¸_1" xmlns="http://www.w3.org/2000/svg" xmlns:xlink="http://www.w3.org/1999/xlink" x="0px"
	 y="0px" viewBox="0 0 393.47 378.57" style="enable-background:new 0 0 393.47 378.57;" xml:space="preserve">
<style type="text/css">
	.st0{fill:#ED0000;}
</style>
<g>
	<polygon points="92.3,219.71 92.3,258.04 83.66,258.04 83.66,231.1 72.11,250.38 60.5,231.1 60.5,258.04 51.92,258.04 
		51.92,219.71 63.04,219.71 72.11,235.31 80.96,219.71 	"/>
	<rect x="99.59" y="219.71" width="8.58" height="38.33"/>
	<polygon points="122.27,227.7 111.9,227.7 111.9,219.71 141.27,219.71 141.27,227.7 130.9,227.7 130.9,258.04 122.27,258.04 	"/>
	<path d="M144.46,257.55v-7.99c1.78,0.33,6.1,1.08,11.39,1.08c4.43,0,6.64-0.59,6.64-3.02c0-2.81-1.89-3.19-8.1-6.05
		c-6.05-2.75-10.53-5.18-10.53-11.66c0-7.99,4.86-10.74,14.47-10.74c4.91,0,8.48,0.43,10.69,0.7v7.99
		c-2.16-0.21-6.1-0.75-10.47-0.75c-5.18,0-6.21,0.54-6.21,2.65c0,2.16,2.81,3.24,7.02,5.13c6.32,2.86,11.5,5.24,11.5,12.52
		c0,7.61-4.75,11.17-15.01,11.17C151.8,258.58,148.02,258.15,144.46,257.55"/>
	<path d="M175.98,245.09v-25.37h8.58v25.05c0,4.37,2.59,5.88,6.69,5.88c4.1,0,6.75-1.51,6.75-5.88v-25.05h8.58v25.37
		c0,9.28-6.1,13.49-15.33,13.49C182.03,258.58,175.98,254.37,175.98,245.09"/>
	<path d="M213.94,219.71h16.73c7.83,0,12.15,2.86,12.15,9.88c0,5.56-3.19,7.29-6.1,8.42c3.46,1.02,7.07,2.92,7.07,9.34
		c0,6.69-4.05,10.69-12.52,10.69h-17.33V219.71z M229.43,235.21c3.45,0,4.7-1.83,4.7-4.37c0-3.08-1.51-3.89-4.7-3.89h-6.91v8.26
		H229.43z M230.02,250.81c3.46,0,4.86-1.24,4.86-4.59c0-2.97-1.3-4.21-4.48-4.21h-7.88v8.8H230.02z"/>
	<rect x="248.98" y="219.71" width="8.58" height="38.33"/>
	<path d="M263.82,257.55v-7.99c1.78,0.33,6.1,1.08,11.39,1.08c4.43,0,6.64-0.59,6.64-3.02c0-2.81-1.89-3.19-8.1-6.05
		c-6.05-2.75-10.53-5.18-10.53-11.66c0-7.99,4.86-10.74,14.47-10.74c4.91,0,8.48,0.43,10.69,0.7v7.99
		c-2.16-0.21-6.1-0.75-10.47-0.75c-5.18,0-6.21,0.54-6.21,2.65c0,2.16,2.81,3.24,7.02,5.13c6.32,2.86,11.5,5.24,11.5,12.52
		c0,7.61-4.75,11.17-15.01,11.17C271.16,258.58,267.38,258.15,263.82,257.55"/>
	<polygon points="325.58,219.71 325.58,258.04 317,258.04 317,242.82 303.39,242.82 303.39,258.04 294.81,258.04 294.81,219.71 
		303.39,219.71 303.39,234.83 317,234.83 317,219.71 	"/>
	<rect x="332.6" y="219.71" width="8.58" height="38.33"/>
	<polygon points="132.55,271.3 132.55,309.62 123.91,309.62 123.91,282.69 112.36,301.96 100.75,282.69 100.75,309.62 92.17,309.62 
		92.17,271.3 103.29,271.3 112.36,286.9 121.21,271.3 	"/>
	<path d="M138.43,290.46c0-13.71,5.24-19.7,16.52-19.7c11.28,0,16.52,5.99,16.52,19.7c0,13.71-5.24,19.7-16.52,19.7
		C143.67,310.16,138.43,304.17,138.43,290.46 M162.57,290.46c0-7.83-1.35-11.77-7.61-11.77c-6.26,0-7.61,3.94-7.61,11.77
		c0,7.88,1.35,11.88,7.61,11.88C161.22,302.33,162.57,298.34,162.57,290.46"/>
	<polygon points="183.25,279.29 172.88,279.29 172.88,271.3 202.25,271.3 202.25,279.29 191.88,279.29 191.88,309.62 183.25,309.62 
			"/>
	<path d="M203.65,290.46c0-13.71,5.23-19.7,16.52-19.7s16.52,5.99,16.52,19.7c0,13.71-5.24,19.7-16.52,19.7
		S203.65,304.17,203.65,290.46 M227.78,290.46c0-7.83-1.35-11.77-7.61-11.77c-6.26,0-7.61,3.94-7.61,11.77
		c0,7.88,1.35,11.88,7.61,11.88C226.44,302.33,227.78,298.34,227.78,290.46"/>
	<path d="M242.63,271.3h15.55c8.21,0,13.44,3.08,13.44,12.31c0,5.94-2.97,9.77-7.88,10.96l9.45,15.06h-10.04l-8.1-13.71h-3.83v13.71
		h-8.58V271.3z M257.64,288.46c3.88,0,5.07-1.94,5.07-4.86c0-2.97-1.19-4.91-5.07-4.91h-6.42v9.77H257.64z"/>
	<path d="M276.75,309.14v-7.99c1.78,0.32,6.1,1.08,11.39,1.08c4.43,0,6.64-0.59,6.64-3.02c0-2.81-1.89-3.18-8.1-6.05
		c-6.05-2.75-10.53-5.18-10.53-11.66c0-7.99,4.86-10.74,14.47-10.74c4.91,0,8.48,0.43,10.69,0.7v7.99
		c-2.16-0.22-6.1-0.75-10.47-0.75c-5.18,0-6.21,0.54-6.21,2.64c0,2.16,2.81,3.24,7.02,5.13c6.32,2.86,11.5,5.24,11.5,12.52
		c0,7.61-4.75,11.17-15.01,11.17C284.1,310.16,280.32,309.73,276.75,309.14"/>
</g>
<g>
	<polygon class="st0" points="159.26,63.59 195.97,127.19 232.69,63.59 195.97,0 	"/>
	<polygon class="st0" points="269.4,127.19 195.97,127.19 232.69,190.78 306.12,190.78 	"/>
	<polygon class="st0" points="122.54,127.19 195.97,127.19 159.25,190.78 85.82,190.78 	"/>
</g>
<path d="M373.57,368.12h5.22v-15.34c1.76-0.5,3.89-1,5.98-1c1.76,0,3.47,0.75,3.47,3.39v12.96h5.22v-13.21
	c0-5.43-3.18-7.69-6.69-7.69c-4.14,0-6.56,1.09-8.36,1.84v-1.42h-4.85V368.12z M358.31,363.99c-4.05,0-5.43-2.13-5.43-6.14
	c0-4.14,1.38-6.15,5.43-6.15c4.06,0,5.48,2.01,5.48,6.15C363.79,361.85,362.37,363.99,358.31,363.99 M358.31,368.54
	c7.07,0,10.83-3.72,10.83-10.66c0-7.07-3.76-10.66-10.83-10.66c-7.02,0-10.83,3.59-10.83,10.66
	C347.48,364.82,351.29,368.54,358.31,368.54 M337.58,368.12h5.23v-20.48h-5.23V368.12z M340.17,344.67l3.68-3.72l-3.68-3.76
	l-3.64,3.76L340.17,344.67z M328.93,368.54c1.63,0,3.38-0.17,4.35-0.33v-4.72c-0.84,0.13-2.13,0.21-3.3,0.21
	c-2.67,0-3.93-0.42-3.93-2.93v-8.82h6.61v-4.3h-6.61V342h-5.18v5.64h-3.76v4.3h3.76v10.03
	C320.86,366.83,323.66,368.54,328.93,368.54 M308.03,368.12h5.22v-20.48h-5.22V368.12z M310.62,344.67l3.68-3.72l-3.68-3.76
	l-3.63,3.76L310.62,344.67z M293.06,363.94c-2.55,0-4.26-0.58-5.69-0.92v-10.37c1.46-0.38,3.13-0.92,5.69-0.92
	c3.63,0,5.02,2.38,5.02,6.14C298.08,361.64,296.61,363.94,293.06,363.94 M294.23,347.22c-3.18,0-5.52,0.96-6.9,1.46v-11.08h-5.22
	v11.12l0.04,19.4h5.18v-1.38c1.3,0.59,3.18,1.8,6.9,1.8c5.69,0,9.07-4.3,9.07-10.66C303.31,351.53,299.92,347.22,294.23,347.22
	 M242.73,368.12h5.22v-15.3c1.21-0.59,4.05-1,5.77-1c1.93,0,3.26,0.92,3.26,3.51v12.79h5.23v-13.54c0-0.63-0.04-1.21-0.17-1.75
	c1.13-0.63,4.06-1.05,5.81-1c1.88,0.04,3.3,0.92,3.3,3.51v12.79h5.19v-13.5c0-5.31-3.1-7.4-6.98-7.4c-2.8,0-6.9,0.83-8.86,2.13
	c-1.17-1.46-3.18-2.13-5.27-2.13c-2.93,0-6.56,1.17-7.65,1.84v-1.42h-4.85V368.12z M218.82,355.92c1.42-5.89,4.06-9.57,6.1-13.79
	c2.09,4.3,4.8,8.03,6.31,13.79H218.82z M229.11,339.15l-0.42-0.71h-7.65l-0.33,0.67c-3.05,6.14-8.23,13.38-8.23,25.46v3.51h5.35
	v-2.97c0-1.67,0.08-3.17,0.25-4.6h14c0.17,1.42,0.25,2.97,0.25,4.64v2.97h5.35v-3.26C237.67,352.78,232.49,345.01,229.11,339.15
	 M187.98,368.12h5.22v-15.34c1.76-0.5,3.89-1,7.98-1v-4.55c-4.14,0-6.56,1.09-8.36,1.84v-1.42h-4.85V368.12z M182.29,347.64h-5.23
	v15.34c-1.75,0.5-3.89,1-5.98,1c-1.76,0-3.47-0.75-3.47-3.39v-12.96h-5.22v13.21c0,5.43,3.17,7.69,6.69,7.69
	c4.14,0,6.56-1.09,8.36-1.84v1.42h4.85V347.64z M147.35,363.99c-4.06,0-5.43-2.13-5.43-6.14c0-4.14,1.38-6.15,5.43-6.15
	c4.05,0,5.48,2.01,5.48,6.15C152.82,361.85,151.4,363.99,147.35,363.99 M147.35,368.54c7.06,0,10.83-3.72,10.83-10.66
	c0-7.07-3.76-10.66-10.83-10.66c-7.02,0-10.83,3.59-10.83,10.66C136.52,364.82,140.32,368.54,147.35,368.54 M118.21,378.57
	l8.7-12.04c1-1.38,6.85-8.69,6.85-18.89h-5.23c0,8.07-4.01,14-5.27,15.8c-1.46-2.09-5.56-7.86-5.56-15.8h-5.23
	c0.33,10.78,5.23,16.18,7.73,19.86l-5.77,8.15L118.21,378.57z M85.23,356.17c0.21-3.17,1.38-4.93,5.02-4.93
	c4.26,0,4.56,2.01,4.6,4.93H85.23z M91.33,368.54c3.93,0,6.1-0.38,7.36-0.71v-4.31c-1.38,0.34-3.8,0.79-7.02,0.79
	c-3.76,0-6.23-1.13-6.44-4.76h14.63c0.04-0.5,0.04-1.42,0.04-2.13c0-6.56-2.13-10.2-9.49-10.2c-7.11,0-10.41,3.55-10.41,10.58
	C80.01,364.99,84.06,368.54,91.33,368.54 M64.21,368.12h5.02c2.38-3.68,7.48-8.86,7.86-20.48h-5.23
	c-0.42,8.49-3.34,13.08-5.14,15.67c-1.8-2.59-4.72-7.19-5.14-15.67h-5.23C56.72,359.26,61.82,364.44,64.21,368.12 M46.86,368.12
	h5.22v-20.48h-5.22V368.12z M49.45,344.67l3.68-3.72l-3.68-3.76l-3.64,3.76L49.45,344.67z M29.72,368.12h5.23v-15.34
	c1.75-0.5,3.89-1,7.98-1v-4.55c-4.14,0-6.56,1.09-8.36,1.84v-1.42h-4.85V368.12z M5.27,363.19v-19.82h6.86
	c5.02,0,7.52,2.97,7.52,9.78c0,6.85-2.59,10.03-7.69,10.03H5.27z M0,368.12h11.87c8.15,0,13.25-4.68,13.25-14.84
	c0-10.49-5.06-14.84-13.09-14.84H0V368.12z"/>
</svg>
